<mxfile host="app.diagrams.net" modified="2024-06-20T22:24:19.570Z" agent="Mozilla/5.0 (Windows NT 10.0; Win64; x64) AppleWebKit/537.36 (KHTML, like Gecko) Chrome/125.0.0.0 Safari/537.36" etag="DixldodduWYfkP-CvEbX" version="23.1.6" type="google" pages="2">
  <diagram name="mappingFigure" id="RJGUUOGCg1_CW01zeDxg">
    <mxGraphModel grid="1" page="1" gridSize="10" guides="1" tooltips="1" connect="1" arrows="1" fold="1" pageScale="1" pageWidth="1700" pageHeight="1100" math="0" shadow="0">
      <root>
        <mxCell id="0" />
        <mxCell id="1" parent="0" />
        <mxCell id="bgnvrLKmnZTO1jpBGcNv-3" value="&lt;p style=&quot;line-height: 100%;&quot;&gt;&lt;b style=&quot;font-weight:normal;&quot; id=&quot;docs-internal-guid-0b4832f5-7fff-8997-1123-0fc188532ddd&quot;&gt;&lt;/b&gt;&lt;/p&gt;&lt;p dir=&quot;ltr&quot; style=&quot;line-height: 120%; text-align: right; margin-top: 0pt; margin-bottom: 0pt; font-size: 14px;&quot;&gt;&lt;span style=&quot;background-color: transparent; color: rgb(25, 72, 124);&quot;&gt;&lt;br&gt;&lt;/span&gt;&lt;/p&gt;&lt;p dir=&quot;ltr&quot; style=&quot;line-height: 120%; text-align: right; margin-top: 0pt; margin-bottom: 0pt; font-size: 14px;&quot;&gt;&lt;span style=&quot;background-color: transparent; color: rgb(25, 72, 124);&quot;&gt;&lt;br&gt;&lt;/span&gt;&lt;/p&gt;&lt;p dir=&quot;ltr&quot; style=&quot;line-height: 120%; text-align: right; margin-top: 0pt; margin-bottom: 0pt; font-size: 14px;&quot;&gt;&lt;span style=&quot;background-color: transparent; color: rgb(25, 72, 124);&quot;&gt;CDA.id (1..1)&lt;/span&gt;&lt;br&gt;&lt;/p&gt;&lt;p dir=&quot;ltr&quot; style=&quot;line-height: 120%; text-align: right; margin-top: 0pt; margin-bottom: 0pt; font-size: 14px;&quot;&gt;&lt;b style=&quot;font-weight:normal;&quot; id=&quot;docs-internal-guid-0b4832f5-7fff-8997-1123-0fc188532ddd&quot;&gt;&lt;span style=&quot;color: rgb(25, 72, 124); background-color: transparent; font-weight: 400; font-style: normal; font-variant: normal; text-decoration: none; vertical-align: baseline;&quot;&gt;&lt;font face=&quot;Helvetica&quot; style=&quot;font-size: 14px;&quot;&gt;&lt;font style=&quot;font-size: 14px;&quot;&gt;bundle assembly time. &amp;gt;= &lt;/font&gt;&lt;font style=&quot;font-size: 14px;&quot;&gt;composition&lt;/font&gt;&lt;font style=&quot;font-size: 14px;&quot;&gt;.date&lt;/font&gt;&lt;/font&gt;&lt;/span&gt;&lt;/b&gt;&lt;/p&gt;&lt;p dir=&quot;ltr&quot; style=&quot;line-height: 120%; text-align: right; margin-top: 0pt; margin-bottom: 0pt; font-size: 14px;&quot;&gt;&lt;font style=&quot;background-color: transparent; color: rgb(25, 72, 124);&quot;&gt;&lt;br&gt;&lt;/font&gt;&lt;/p&gt;&lt;p dir=&quot;ltr&quot; style=&quot;line-height: 120%; text-align: right; margin-top: 0pt; margin-bottom: 0pt; font-size: 14px;&quot;&gt;&lt;font style=&quot;background-color: transparent; color: rgb(25, 72, 124);&quot;&gt;&lt;br&gt;&lt;/font&gt;&lt;/p&gt;&lt;p dir=&quot;ltr&quot; style=&quot;line-height: 120%; text-align: right; margin-top: 0pt; margin-bottom: 0pt; font-size: 14px;&quot;&gt;&lt;font style=&quot;background-color: transparent; color: rgb(25, 72, 124);&quot;&gt;&lt;br&gt;&lt;/font&gt;&lt;/p&gt;&lt;p dir=&quot;ltr&quot; style=&quot;line-height: 120%; text-align: right; margin-top: 0pt; margin-bottom: 0pt; font-size: 14px;&quot;&gt;&lt;font style=&quot;background-color: transparent; color: rgb(25, 72, 124);&quot;&gt;&lt;br&gt;&lt;/font&gt;&lt;/p&gt;&lt;p dir=&quot;ltr&quot; style=&quot;line-height: 120%; text-align: right; margin-top: 0pt; margin-bottom: 0pt; font-size: 14px;&quot;&gt;&lt;font style=&quot;background-color: transparent; color: rgb(25, 72, 124);&quot;&gt;CDA.&lt;/font&gt;&lt;font style=&quot;background-color: transparent; color: rgb(25, 72, 124);&quot;&gt;languageCode (0..1&lt;/font&gt;&lt;font style=&quot;background-color: transparent; color: rgb(25, 72, 124);&quot;&gt;)&lt;/font&gt;&lt;/p&gt;&lt;b style=&quot;font-weight: normal; font-size: 14px;&quot; id=&quot;docs-internal-guid-0b4832f5-7fff-8997-1123-0fc188532ddd&quot;&gt;&lt;font style=&quot;font-size: 14px;&quot;&gt;&lt;p dir=&quot;ltr&quot; style=&quot;font-size: 14px; line-height: 120%; text-align: right; margin-top: 0pt; margin-bottom: 0pt;&quot;&gt;&lt;span style=&quot;color: rgb(25, 72, 124); background-color: transparent; font-weight: 400; font-style: normal; font-variant: normal; text-decoration: none; vertical-align: baseline;&quot;&gt;&lt;font face=&quot;Helvetica&quot;&gt;CDA.setId (0..1)&lt;/font&gt;&lt;/span&gt;&lt;/p&gt;&lt;p dir=&quot;ltr&quot; style=&quot;font-size: 14px; line-height: 120%; text-align: right; margin-top: 0pt; margin-bottom: 0pt;&quot;&gt;&lt;span style=&quot;background-color: transparent; color: rgb(25, 72, 124);&quot;&gt;&lt;br&gt;&lt;/span&gt;&lt;/p&gt;&lt;p dir=&quot;ltr&quot; style=&quot;font-size: 14px; line-height: 120%; text-align: right; margin-top: 0pt; margin-bottom: 0pt;&quot;&gt;&lt;span style=&quot;background-color: transparent; color: rgb(25, 72, 124);&quot;&gt;CDA.code (1..1)&lt;/span&gt;&lt;/p&gt;&lt;p dir=&quot;ltr&quot; style=&quot;font-size: 14px; line-height: 120%; text-align: right; margin-top: 0pt; margin-bottom: 0pt;&quot;&gt;&lt;span style=&quot;color: rgb(25, 72, 124); background-color: transparent; font-weight: 400; font-style: normal; font-variant: normal; text-decoration: none; vertical-align: baseline;&quot;&gt;CDA.componentOf.encompassingEncounter (0..1)&lt;/span&gt;&lt;/p&gt;&lt;p dir=&quot;ltr&quot; style=&quot;font-size: 14px; line-height: 120%; text-align: right; margin-top: 0pt; margin-bottom: 0pt;&quot;&gt;&lt;span style=&quot;color: rgb(25, 72, 124); background-color: transparent; font-weight: 400; font-style: normal; font-variant: normal; text-decoration: none; vertical-align: baseline;&quot;&gt;CDA.effectiveTime (1..1)&lt;/span&gt;&lt;/p&gt;&lt;p dir=&quot;ltr&quot; style=&quot;font-size: 14px; line-height: 120%; text-align: right; margin-top: 0pt; margin-bottom: 0pt;&quot;&gt;&lt;span style=&quot;color: rgb(25, 72, 124); background-color: transparent; font-weight: 400; font-style: normal; font-variant: normal; text-decoration: none; vertical-align: baseline;&quot;&gt;&lt;font face=&quot;Helvetica&quot;&gt;CDA.assignedAuthor.author (1..*)&lt;/font&gt;&lt;/span&gt;&lt;/p&gt;&lt;p dir=&quot;ltr&quot; style=&quot;font-size: 14px; line-height: 120%; text-align: right; margin-top: 0pt; margin-bottom: 0pt;&quot;&gt;&lt;span style=&quot;color: rgb(25, 72, 124); background-color: transparent; font-weight: 400; font-style: normal; font-variant: normal; text-decoration: none; vertical-align: baseline;&quot;&gt;CDA.title (0..1)&lt;/span&gt;&lt;/p&gt;&lt;p dir=&quot;ltr&quot; style=&quot;font-size: 14px; line-height: 120%; text-align: right; margin-top: 0pt; margin-bottom: 0pt;&quot;&gt;&lt;span style=&quot;color: rgb(25, 72, 124); background-color: transparent; font-weight: 400; font-style: normal; font-variant: normal; text-decoration: none; vertical-align: baseline;&quot;&gt;&lt;font face=&quot;Helvetica&quot;&gt;CDA.confidentialityCode (1..1)&lt;/font&gt;&lt;/span&gt;&lt;/p&gt;&lt;p dir=&quot;ltr&quot; style=&quot;font-size: 14px; line-height: 120%; text-align: right; margin-top: 0pt; margin-bottom: 0pt;&quot;&gt;&lt;span style=&quot;color: rgb(25, 72, 124); background-color: transparent; font-weight: 400; font-style: normal; font-variant: normal; text-decoration: none; vertical-align: baseline;&quot;&gt;&lt;span style=&quot;background-color: transparent;&quot;&gt;&lt;br&gt;&lt;/span&gt;&lt;/span&gt;&lt;/p&gt;&lt;p dir=&quot;ltr&quot; style=&quot;font-size: 14px; line-height: 120%; text-align: right; margin-top: 0pt; margin-bottom: 0pt;&quot;&gt;&lt;span style=&quot;color: rgb(25, 72, 124); background-color: transparent; font-weight: 400; font-style: normal; font-variant: normal; text-decoration: none; vertical-align: baseline;&quot;&gt;&lt;span style=&quot;background-color: transparent;&quot;&gt;CDA.assignedEntity.authenticator (0..*)&lt;/span&gt;&lt;font face=&quot;G7IsgrN7ehW2GBwuY225&quot;&gt;&lt;br&gt;&lt;/font&gt;&lt;/span&gt;&lt;/p&gt;&lt;p dir=&quot;ltr&quot; style=&quot;font-size: 14px; line-height: 120%; text-align: right; margin-top: 0pt; margin-bottom: 0pt;&quot;&gt;&lt;span style=&quot;color: rgb(25, 72, 124); background-color: transparent; font-weight: 400; font-style: normal; font-variant: normal; text-decoration: none; vertical-align: baseline;&quot;&gt;&lt;font face=&quot;Helvetica&quot;&gt;CDA.assignedEntity.legalAuthenticator (0..1)&lt;/font&gt;&lt;/span&gt;&lt;/p&gt;&lt;p dir=&quot;ltr&quot; style=&quot;font-size: 14px; line-height: 120%; text-align: right; margin-top: 0pt; margin-bottom: 0pt;&quot;&gt;&lt;span style=&quot;color: rgb(25, 72, 124); background-color: transparent; font-weight: 400; font-style: normal; font-variant: normal; text-decoration: none; vertical-align: baseline;&quot;&gt;&lt;font face=&quot;Helvetica&quot;&gt;CDA.documentationOf/ServiceEvent (0..*)&lt;/font&gt;&lt;/span&gt;&lt;span style=&quot;color: rgb(25, 72, 124); background-color: transparent; font-weight: 400; font-style: normal; font-variant: normal; text-decoration: none; vertical-align: baseline;&quot;&gt;&lt;font face=&quot;Helvetica&quot;&gt;&lt;br&gt;&lt;/font&gt;&lt;/span&gt;&lt;/p&gt;&lt;p dir=&quot;ltr&quot; style=&quot;font-size: 14px; line-height: 120%; text-align: right; margin-top: 0pt; margin-bottom: 0pt;&quot;&gt;&lt;span style=&quot;color: rgb(25, 72, 124); background-color: transparent; font-weight: 400; font-style: normal; font-variant: normal; text-decoration: none; vertical-align: baseline;&quot;&gt;&lt;font face=&quot;Helvetica&quot;&gt;CDA.parentDocument.relatedDocument (0..*)&lt;/font&gt;&lt;/span&gt;&lt;/p&gt;&lt;p dir=&quot;ltr&quot; style=&quot;font-size: 14px; line-height: 120%; text-align: right; margin-top: 0pt; margin-bottom: 0pt;&quot;&gt;&lt;span style=&quot;background-color: transparent; color: rgb(25, 72, 124);&quot;&gt;&lt;br&gt;&lt;/span&gt;&lt;/p&gt;&lt;p dir=&quot;ltr&quot; style=&quot;font-size: 14px; line-height: 120%; text-align: right; margin-top: 0pt; margin-bottom: 0pt;&quot;&gt;&lt;br&gt;&lt;/p&gt;&lt;p dir=&quot;ltr&quot; style=&quot;font-size: 14px; line-height: 120%; text-align: right; margin-top: 0pt; margin-bottom: 0pt;&quot;&gt;&lt;span style=&quot;background-color: transparent; color: rgb(25, 72, 124);&quot;&gt;CDA.patientRole.recordTarget (1..*)&lt;/span&gt;&lt;/p&gt;&lt;p dir=&quot;ltr&quot; style=&quot;font-size: 14px; line-height: 120%; text-align: right; margin-top: 0pt; margin-bottom: 0pt;&quot;&gt;&lt;span style=&quot;color: rgb(25, 72, 124); background-color: transparent; font-weight: 400; font-style: normal; font-variant: normal; text-decoration: none; vertical-align: baseline;&quot;&gt;&lt;font face=&quot;Helvetica&quot;&gt;CDA.assignedCustodian.custodian (1..1)&lt;/font&gt;&lt;/span&gt;&lt;/p&gt;&lt;p dir=&quot;ltr&quot; style=&quot;font-size: 14px; line-height: 120%; text-align: right; margin-top: 0pt; margin-bottom: 0pt;&quot;&gt;&lt;span style=&quot;color: rgb(25, 72, 124); background-color: transparent; font-weight: 400; font-style: normal; font-variant: normal; text-decoration: none; vertical-align: baseline;&quot;&gt;&lt;font face=&quot;Helvetica&quot;&gt;CDA.versionNumber (0..1)&lt;/font&gt;&lt;/span&gt;&lt;/p&gt;&lt;p dir=&quot;ltr&quot; style=&quot;font-size: 14px; line-height: 120%; text-align: right; margin-top: 0pt; margin-bottom: 0pt;&quot;&gt;&lt;span style=&quot;color: rgb(25, 72, 124); background-color: transparent; font-weight: 400; font-style: normal; font-variant: normal; text-decoration: none; vertical-align: baseline;&quot;&gt;&lt;font face=&quot;Helvetica&quot;&gt;CDA.assignedEntity.dataEnterer (0..1)&lt;/font&gt;&lt;/span&gt;&lt;/p&gt;&lt;p dir=&quot;ltr&quot; style=&quot;font-size: 14px; line-height: 120%; text-align: right; margin-top: 0pt; margin-bottom: 0pt;&quot;&gt;&lt;span style=&quot;color: rgb(25, 72, 124); background-color: transparent; font-weight: 400; font-style: normal; font-variant: normal; text-decoration: none; vertical-align: baseline;&quot;&gt;&lt;font face=&quot;Helvetica&quot;&gt;CDA.informantChoice.informant (0..*)&lt;/font&gt;&lt;/span&gt;&lt;/p&gt;&lt;p dir=&quot;ltr&quot; style=&quot;font-size: 14px; line-height: 120%; text-align: right; margin-top: 0pt; margin-bottom: 0pt;&quot;&gt;&lt;span style=&quot;color: rgb(25, 72, 124); background-color: transparent; font-weight: 400; font-style: normal; font-variant: normal; text-decoration: none; vertical-align: baseline;&quot;&gt;&lt;font face=&quot;Helvetica&quot;&gt;CDA.intendedRecipient.informationRecipient (0..*)&lt;/font&gt;&lt;/span&gt;&lt;/p&gt;&lt;p dir=&quot;ltr&quot; style=&quot;font-size: 14px; line-height: 120%; text-align: right; margin-top: 0pt; margin-bottom: 0pt;&quot;&gt;&lt;span style=&quot;color: rgb(25, 72, 124); background-color: transparent; font-weight: 400; font-style: normal; font-variant: normal; text-decoration: none; vertical-align: baseline;&quot;&gt;&lt;font face=&quot;Helvetica&quot;&gt;CDA&lt;/font&gt;.&lt;font face=&quot;Helvetica&quot;&gt;associatedEntity&lt;/font&gt;.participant (0..*)&lt;/span&gt;&lt;/p&gt;&lt;p dir=&quot;ltr&quot; style=&quot;font-size: 14px; line-height: 120%; text-align: right; margin-top: 0pt; margin-bottom: 0pt;&quot;&gt;&lt;span style=&quot;color: rgb(25, 72, 124); background-color: transparent; font-weight: 400; font-style: normal; font-variant: normal; text-decoration: none; vertical-align: baseline;&quot;&gt;CDA.authorization.Consent (0..*)&lt;/span&gt;&lt;/p&gt;&lt;p dir=&quot;ltr&quot; style=&quot;font-size: 14px; line-height: 120%; text-align: right; margin-top: 0pt; margin-bottom: 0pt;&quot;&gt;&lt;span style=&quot;color: rgb(25, 72, 124); background-color: transparent; font-weight: 400; font-style: normal; font-variant: normal; text-decoration: none; vertical-align: baseline;&quot;&gt;&lt;font face=&quot;Helvetica&quot;&gt;CDA.inFulfillmentOf.Order (0..*)&lt;/font&gt;&lt;/span&gt;&lt;/p&gt;&lt;p dir=&quot;ltr&quot; style=&quot;font-size: 14px; line-height: 120%; text-align: right; margin-top: 0pt; margin-bottom: 0pt;&quot;&gt;&lt;span style=&quot;color: rgb(25, 72, 124); background-color: transparent; font-weight: 400; font-style: normal; font-variant: normal; text-decoration: none; vertical-align: baseline;&quot;&gt;&lt;font face=&quot;Helvetica&quot;&gt;CDA.bodyChoice.component.StructuredBody.component.Section (0..*)&lt;/font&gt;&lt;/span&gt;&lt;/p&gt;&lt;p dir=&quot;ltr&quot; style=&quot;font-size: 14px; line-height: 120%; text-align: right; margin-top: 0pt; margin-bottom: 0pt;&quot;&gt;&lt;span style=&quot;color: rgb(25, 72, 124); background-color: transparent; font-weight: 400; font-style: normal; font-variant: normal; text-decoration: none; vertical-align: baseline;&quot;&gt;&lt;font face=&quot;Helvetica&quot;&gt;CDA...Section.title (0..1)&lt;/font&gt;&lt;/span&gt;&lt;/p&gt;&lt;p dir=&quot;ltr&quot; style=&quot;font-size: 14px; line-height: 120%; text-align: right; margin-top: 0pt; margin-bottom: 0pt;&quot;&gt;&lt;span style=&quot;color: rgb(25, 72, 124); background-color: transparent; font-weight: 400; font-style: normal; font-variant: normal; text-decoration: none; vertical-align: baseline;&quot;&gt;&lt;font face=&quot;Helvetica&quot;&gt;CDA...Section.code (0..1)&lt;/font&gt;&lt;/span&gt;&lt;/p&gt;&lt;p dir=&quot;ltr&quot; style=&quot;font-size: 14px; line-height: 120%; text-align: right; margin-top: 0pt; margin-bottom: 0pt;&quot;&gt;&lt;span style=&quot;color: rgb(25, 72, 124); background-color: transparent; font-weight: 400; font-style: normal; font-variant: normal; text-decoration: none; vertical-align: baseline;&quot;&gt;&lt;font face=&quot;Helvetica&quot;&gt;CDA...Section.text (0..1)&lt;/font&gt;&lt;/span&gt;&lt;/p&gt;&lt;/font&gt;&lt;/b&gt;&lt;p&gt;&lt;/p&gt;" style="text;whiteSpace=wrap;html=1;" vertex="1" parent="1">
          <mxGeometry x="312" y="275" width="442" height="663" as="geometry" />
        </mxCell>
        <mxCell id="bgnvrLKmnZTO1jpBGcNv-4" value="&lt;b style=&quot;font-weight: normal; font-size: 20px;&quot; id=&quot;docs-internal-guid-fc3fad12-7fff-ddbc-ae6c-00addda182f8&quot;&gt;&lt;p dir=&quot;ltr&quot; style=&quot;line-height: 1.2; margin-top: 0pt; margin-bottom: 0pt;&quot;&gt;&lt;span style=&quot;font-family: Arial, sans-serif; color: rgb(25, 72, 124); background-color: transparent; font-weight: 400; font-style: normal; font-variant: normal; text-decoration: none; vertical-align: baseline;&quot;&gt;&lt;font style=&quot;font-size: 20px;&quot;&gt;FHIR Clinical Document&lt;/font&gt;&lt;/span&gt;&lt;/p&gt;&lt;/b&gt;" style="text;whiteSpace=wrap;html=1;rotation=-90;" vertex="1" parent="1">
          <mxGeometry x="1020" y="570" width="240" height="30" as="geometry" />
        </mxCell>
        <mxCell id="bgnvrLKmnZTO1jpBGcNv-7" value="&lt;b style=&quot;font-weight: normal; font-size: 14px;&quot; id=&quot;docs-internal-guid-992e8ade-7fff-1508-77d5-8346d76d3da1&quot;&gt;&lt;font style=&quot;font-size: 14px;&quot; face=&quot;Helvetica&quot;&gt;&lt;p dir=&quot;ltr&quot; style=&quot;line-height: 120%; margin-top: 0pt; margin-bottom: 0pt;&quot;&gt;&lt;span style=&quot;color: rgb(0, 0, 0); background-color: transparent; font-weight: 700; font-style: normal; font-variant: normal; text-decoration: underline; text-decoration-skip-ink: none; vertical-align: baseline;&quot;&gt;Bundle&lt;/span&gt;&lt;span style=&quot;color: rgb(0, 0, 0); background-color: transparent; font-weight: 400; font-style: normal; font-variant: normal; text-decoration: underline; text-decoration-skip-ink: none; vertical-align: baseline;&quot;&gt; (type=document)&lt;/span&gt;&lt;/p&gt;&lt;ul style=&quot;margin-top: 0px; margin-bottom: 0px; padding-inline-start: 48px; line-height: 120%;&quot;&gt;&lt;li dir=&quot;ltr&quot; style=&quot;list-style-type: disc; color: rgb(0, 0, 0); background-color: transparent; font-weight: 400; font-style: normal; font-variant: normal; text-decoration: none; vertical-align: baseline;&quot; aria-level=&quot;1&quot;&gt;&lt;p dir=&quot;ltr&quot; style=&quot;line-height: 120%; margin-top: 0pt; margin-bottom: 0pt;&quot; role=&quot;presentation&quot;&gt;&lt;span style=&quot;color: rgb(0, 0, 0); background-color: transparent; font-weight: 400; font-style: normal; font-variant: normal; text-decoration: none; vertical-align: baseline;&quot;&gt;id&lt;/span&gt;&lt;/p&gt;&lt;/li&gt;&lt;li dir=&quot;ltr&quot; style=&quot;list-style-type: disc; color: rgb(0, 0, 0); background-color: transparent; font-weight: 400; font-style: normal; font-variant: normal; text-decoration: none; vertical-align: baseline;&quot; aria-level=&quot;1&quot;&gt;&lt;p dir=&quot;ltr&quot; style=&quot;line-height: 120%; margin-top: 0pt; margin-bottom: 0pt;&quot; role=&quot;presentation&quot;&gt;&lt;span style=&quot;color: rgb(0, 0, 0); background-color: transparent; font-weight: 400; font-style: normal; font-variant: normal; text-decoration: none; vertical-align: baseline;&quot;&gt;meta (security, lastUpdated, versionID)&lt;/span&gt;&lt;/p&gt;&lt;/li&gt;&lt;li dir=&quot;ltr&quot; style=&quot;list-style-type: disc; color: rgb(0, 0, 0); background-color: transparent; font-weight: 400; font-style: normal; font-variant: normal; text-decoration: none; vertical-align: baseline;&quot; aria-level=&quot;1&quot;&gt;&lt;p dir=&quot;ltr&quot; style=&quot;line-height: 120%; margin-top: 0pt; margin-bottom: 0pt;&quot; role=&quot;presentation&quot;&gt;&lt;span style=&quot;color: rgb(0, 0, 0); background-color: transparent; font-weight: 400; font-style: normal; font-variant: normal; text-decoration: none; vertical-align: baseline;&quot;&gt;identifier&lt;/span&gt;&lt;/p&gt;&lt;/li&gt;&lt;li dir=&quot;ltr&quot; style=&quot;list-style-type: disc; color: rgb(0, 0, 0); background-color: transparent; font-weight: 400; font-style: normal; font-variant: normal; text-decoration: none; vertical-align: baseline;&quot; aria-level=&quot;1&quot;&gt;&lt;p dir=&quot;ltr&quot; style=&quot;line-height: 120%; margin-top: 0pt; margin-bottom: 0pt;&quot; role=&quot;presentation&quot;&gt;&lt;span style=&quot;color: rgb(0, 0, 0); background-color: transparent; font-weight: 400; font-style: normal; font-variant: normal; text-decoration: none; vertical-align: baseline;&quot;&gt;timestamp&lt;/span&gt;&lt;/p&gt;&lt;/li&gt;&lt;/ul&gt;&lt;br&gt;&lt;p dir=&quot;ltr&quot; style=&quot;line-height: 120%; margin-top: 0pt; margin-bottom: 0pt;&quot;&gt;&lt;span style=&quot;color: rgb(0, 0, 0); background-color: transparent; font-weight: 700; font-style: normal; font-variant: normal; text-decoration: underline; text-decoration-skip-ink: none; vertical-align: baseline;&quot;&gt;Composition&lt;/span&gt;&lt;/p&gt;&lt;ul style=&quot;margin-top: 0px; margin-bottom: 0px; padding-inline-start: 48px; line-height: 120%;&quot;&gt;&lt;li dir=&quot;ltr&quot; style=&quot;list-style-type: disc; color: rgb(0, 0, 0); background-color: transparent; font-weight: 400; font-style: normal; font-variant: normal; text-decoration: none; vertical-align: baseline;&quot; aria-level=&quot;1&quot;&gt;&lt;p dir=&quot;ltr&quot; style=&quot;line-height: 120%; margin-top: 0pt; margin-bottom: 0pt;&quot; role=&quot;presentation&quot;&gt;&lt;span style=&quot;color: rgb(0, 0, 0); background-color: transparent; font-weight: 400; font-style: normal; font-variant: normal; text-decoration: none; vertical-align: baseline;&quot;&gt;id&lt;/span&gt;&lt;/p&gt;&lt;/li&gt;&lt;li dir=&quot;ltr&quot; style=&quot;list-style-type: disc; color: rgb(0, 0, 0); background-color: transparent; font-weight: 400; font-style: normal; font-variant: normal; text-decoration: none; vertical-align: baseline;&quot; aria-level=&quot;1&quot;&gt;&lt;p dir=&quot;ltr&quot; style=&quot;line-height: 120%; margin-top: 0pt; margin-bottom: 0pt;&quot; role=&quot;presentation&quot;&gt;&lt;span style=&quot;color: rgb(0, 0, 0); background-color: transparent; font-weight: 400; font-style: normal; font-variant: normal; text-decoration: none; vertical-align: baseline;&quot;&gt;meta (security, lastUpdated, versionID)&lt;/span&gt;&lt;/p&gt;&lt;/li&gt;&lt;li dir=&quot;ltr&quot; style=&quot;list-style-type: disc; color: rgb(0, 0, 0); background-color: transparent; font-weight: 400; font-style: normal; font-variant: normal; text-decoration: none; vertical-align: baseline;&quot; aria-level=&quot;1&quot;&gt;&lt;p dir=&quot;ltr&quot; style=&quot;line-height: 120%; margin-top: 0pt; margin-bottom: 0pt;&quot; role=&quot;presentation&quot;&gt;&lt;span style=&quot;color: rgb(0, 0, 0); background-color: transparent; font-weight: 400; font-style: normal; font-variant: normal; text-decoration: none; vertical-align: baseline;&quot;&gt;language&lt;/span&gt;&lt;/p&gt;&lt;/li&gt;&lt;li dir=&quot;ltr&quot; style=&quot;list-style-type: disc; color: rgb(0, 0, 0); background-color: transparent; font-weight: 400; font-style: normal; font-variant: normal; text-decoration: none; vertical-align: baseline;&quot; aria-level=&quot;1&quot;&gt;&lt;p dir=&quot;ltr&quot; style=&quot;line-height: 120%; margin-top: 0pt; margin-bottom: 0pt;&quot; role=&quot;presentation&quot;&gt;&lt;span style=&quot;color: rgb(0, 0, 0); background-color: transparent; font-weight: 400; font-style: normal; font-variant: normal; text-decoration: none; vertical-align: baseline;&quot;&gt;identifier&lt;/span&gt;&lt;/p&gt;&lt;/li&gt;&lt;li dir=&quot;ltr&quot; style=&quot;list-style-type: disc; color: rgb(0, 0, 0); background-color: transparent; font-weight: 700; font-style: normal; font-variant: normal; text-decoration: none; vertical-align: baseline;&quot; aria-level=&quot;1&quot;&gt;&lt;p dir=&quot;ltr&quot; style=&quot;line-height: 120%; margin-top: 0pt; margin-bottom: 0pt;&quot; role=&quot;presentation&quot;&gt;&lt;span style=&quot;color: rgb(0, 0, 0); background-color: transparent; font-weight: 700; font-style: normal; font-variant: normal; text-decoration: none; vertical-align: baseline;&quot;&gt;status&lt;/span&gt;&lt;/p&gt;&lt;/li&gt;&lt;li dir=&quot;ltr&quot; style=&quot;list-style-type: disc; color: rgb(0, 0, 0); background-color: transparent; font-weight: 700; font-style: normal; font-variant: normal; text-decoration: none; vertical-align: baseline;&quot; aria-level=&quot;1&quot;&gt;&lt;p dir=&quot;ltr&quot; style=&quot;line-height: 120%; margin-top: 0pt; margin-bottom: 0pt;&quot; role=&quot;presentation&quot;&gt;&lt;span style=&quot;color: rgb(0, 0, 0); background-color: transparent; font-weight: 700; font-style: normal; font-variant: normal; text-decoration: none; vertical-align: baseline;&quot;&gt;type&lt;/span&gt;&lt;/p&gt;&lt;/li&gt;&lt;li dir=&quot;ltr&quot; style=&quot;list-style-type: disc; color: rgb(0, 0, 0); background-color: transparent; font-weight: 400; font-style: normal; font-variant: normal; text-decoration: none; vertical-align: baseline;&quot; aria-level=&quot;1&quot;&gt;&lt;p dir=&quot;ltr&quot; style=&quot;line-height: 120%; margin-top: 0pt; margin-bottom: 0pt;&quot; role=&quot;presentation&quot;&gt;&lt;span style=&quot;color: rgb(0, 0, 0); background-color: transparent; font-weight: 400; font-style: normal; font-variant: normal; text-decoration: none; vertical-align: baseline;&quot;&gt;encounter&lt;/span&gt;&lt;/p&gt;&lt;/li&gt;&lt;li dir=&quot;ltr&quot; style=&quot;list-style-type: disc; color: rgb(0, 0, 0); background-color: transparent; font-weight: 700; font-style: normal; font-variant: normal; text-decoration: none; vertical-align: baseline;&quot; aria-level=&quot;1&quot;&gt;&lt;p dir=&quot;ltr&quot; style=&quot;line-height: 120%; margin-top: 0pt; margin-bottom: 0pt;&quot; role=&quot;presentation&quot;&gt;&lt;span style=&quot;color: rgb(0, 0, 0); background-color: transparent; font-weight: 700; font-style: normal; font-variant: normal; text-decoration: none; vertical-align: baseline;&quot;&gt;date&lt;/span&gt;&lt;/p&gt;&lt;/li&gt;&lt;li dir=&quot;ltr&quot; style=&quot;list-style-type: disc; color: rgb(0, 0, 0); background-color: transparent; font-weight: 700; font-style: normal; font-variant: normal; text-decoration: none; vertical-align: baseline;&quot; aria-level=&quot;1&quot;&gt;&lt;p dir=&quot;ltr&quot; style=&quot;line-height: 120%; margin-top: 0pt; margin-bottom: 0pt;&quot; role=&quot;presentation&quot;&gt;&lt;span style=&quot;color: rgb(0, 0, 0); background-color: transparent; font-weight: 700; font-style: normal; font-variant: normal; text-decoration: none; vertical-align: baseline;&quot;&gt;author&lt;/span&gt;&lt;/p&gt;&lt;/li&gt;&lt;li dir=&quot;ltr&quot; style=&quot;list-style-type: disc; color: rgb(0, 0, 0); background-color: transparent; font-weight: 700; font-style: normal; font-variant: normal; text-decoration: none; vertical-align: baseline;&quot; aria-level=&quot;1&quot;&gt;&lt;p dir=&quot;ltr&quot; style=&quot;line-height: 120%; margin-top: 0pt; margin-bottom: 0pt;&quot; role=&quot;presentation&quot;&gt;&lt;span style=&quot;color: rgb(0, 0, 0); background-color: transparent; font-weight: 700; font-style: normal; font-variant: normal; text-decoration: none; vertical-align: baseline;&quot;&gt;title&lt;/span&gt;&lt;/p&gt;&lt;/li&gt;&lt;li dir=&quot;ltr&quot; style=&quot;list-style-type: disc; color: rgb(0, 0, 0); background-color: transparent; font-weight: 400; font-style: normal; font-variant: normal; text-decoration: none; vertical-align: baseline;&quot; aria-level=&quot;1&quot;&gt;&lt;p dir=&quot;ltr&quot; style=&quot;line-height: 120%; margin-top: 0pt; margin-bottom: 0pt;&quot; role=&quot;presentation&quot;&gt;&lt;span style=&quot;color: rgb(0, 0, 0); background-color: transparent; font-weight: 400; font-style: normal; font-variant: normal; text-decoration: none; vertical-align: baseline;&quot;&gt;confidentiality&lt;/span&gt;&lt;/p&gt;&lt;/li&gt;&lt;li dir=&quot;ltr&quot; style=&quot;list-style-type: disc; color: rgb(0, 0, 0); background-color: transparent; font-weight: 400; font-style: normal; font-variant: normal; text-decoration: none; vertical-align: baseline;&quot; aria-level=&quot;1&quot;&gt;&lt;p dir=&quot;ltr&quot; style=&quot;line-height: 120%; margin-top: 0pt; margin-bottom: 0pt;&quot; role=&quot;presentation&quot;&gt;&lt;span style=&quot;color: rgb(0, 0, 0); background-color: transparent; font-weight: 400; font-style: normal; font-variant: normal; text-decoration: none; vertical-align: baseline;&quot;&gt;attester&lt;/span&gt;&lt;/p&gt;&lt;/li&gt;&lt;ul style=&quot;margin-top: 0px; margin-bottom: 0px; padding-inline-start: 48px; line-height: 120%;&quot;&gt;&lt;li dir=&quot;ltr&quot; style=&quot;list-style-type: circle; color: rgb(0, 0, 0); background-color: transparent; font-weight: 400; font-style: normal; font-variant: normal; text-decoration: none; vertical-align: baseline;&quot; aria-level=&quot;2&quot;&gt;&lt;p dir=&quot;ltr&quot; style=&quot;line-height: 120%; margin-top: 0pt; margin-bottom: 0pt;&quot; role=&quot;presentation&quot;&gt;&lt;span style=&quot;color: rgb(0, 0, 0); background-color: transparent; font-weight: 400; font-style: normal; font-variant: normal; text-decoration: none; vertical-align: baseline;&quot;&gt;professional_attester&lt;/span&gt;&lt;/p&gt;&lt;/li&gt;&lt;li dir=&quot;ltr&quot; style=&quot;list-style-type: circle; color: rgb(0, 0, 0); background-color: transparent; font-weight: 400; font-style: normal; font-variant: normal; text-decoration: none; vertical-align: baseline;&quot; aria-level=&quot;2&quot;&gt;&lt;p dir=&quot;ltr&quot; style=&quot;line-height: 120%; margin-top: 0pt; margin-bottom: 0pt;&quot; role=&quot;presentation&quot;&gt;&lt;span style=&quot;color: rgb(0, 0, 0); background-color: transparent; font-weight: 400; font-style: normal; font-variant: normal; text-decoration: none; vertical-align: baseline;&quot;&gt;legal_attester&lt;/span&gt;&lt;/p&gt;&lt;/li&gt;&lt;/ul&gt;&lt;li dir=&quot;ltr&quot; style=&quot;list-style-type: disc; color: rgb(0, 0, 0); background-color: transparent; font-weight: 400; font-style: normal; font-variant: normal; text-decoration: none; vertical-align: baseline;&quot; aria-level=&quot;1&quot;&gt;&lt;p dir=&quot;ltr&quot; style=&quot;line-height: 120%; margin-top: 0pt; margin-bottom: 0pt;&quot; role=&quot;presentation&quot;&gt;&lt;span style=&quot;color: rgb(0, 0, 0); background-color: transparent; font-weight: 400; font-style: normal; font-variant: normal; text-decoration: none; vertical-align: baseline;&quot;&gt;event&lt;/span&gt;&lt;/p&gt;&lt;/li&gt;&lt;li dir=&quot;ltr&quot; style=&quot;list-style-type: disc; color: rgb(0, 0, 0); background-color: transparent; font-weight: 400; font-style: normal; font-variant: normal; text-decoration: none; vertical-align: baseline;&quot; aria-level=&quot;1&quot;&gt;&lt;p dir=&quot;ltr&quot; style=&quot;line-height: 120%; margin-top: 0pt; margin-bottom: 0pt;&quot; role=&quot;presentation&quot;&gt;&lt;span style=&quot;color: rgb(0, 0, 0); background-color: transparent; font-weight: 400; font-style: normal; font-variant: normal; text-decoration: none; vertical-align: baseline;&quot;&gt;relatesTo&lt;/span&gt;&lt;/p&gt;&lt;/li&gt;&lt;ul style=&quot;margin-top: 0px; margin-bottom: 0px; padding-inline-start: 48px; line-height: 120%;&quot;&gt;&lt;li dir=&quot;ltr&quot; style=&quot;list-style-type: circle; color: rgb(0, 0, 0); background-color: transparent; font-weight: 400; font-style: normal; font-variant: normal; text-decoration: none; vertical-align: baseline;&quot; aria-level=&quot;2&quot;&gt;&lt;p dir=&quot;ltr&quot; style=&quot;line-height: 120%; margin-top: 0pt; margin-bottom: 0pt;&quot; role=&quot;presentation&quot;&gt;&lt;span style=&quot;color: rgb(0, 0, 0); background-color: transparent; font-weight: 400; font-style: normal; font-variant: normal; text-decoration: none; vertical-align: baseline;&quot;&gt;replaced_document&lt;/span&gt;&lt;/p&gt;&lt;/li&gt;&lt;li dir=&quot;ltr&quot; style=&quot;list-style-type: circle; color: rgb(0, 0, 0); background-color: transparent; font-weight: 400; font-style: normal; font-variant: normal; text-decoration: none; vertical-align: baseline;&quot; aria-level=&quot;2&quot;&gt;&lt;p dir=&quot;ltr&quot; style=&quot;line-height: 120%; margin-top: 0pt; margin-bottom: 0pt;&quot; role=&quot;presentation&quot;&gt;&lt;span style=&quot;background-color: transparent;&quot;&gt;appended_document&lt;/span&gt;&lt;/p&gt;&lt;/li&gt;&lt;/ul&gt;&lt;li dir=&quot;ltr&quot; style=&quot;list-style-type: disc; color: rgb(0, 0, 0); background-color: transparent; font-weight: 400; font-style: normal; font-variant: normal; text-decoration: none; vertical-align: baseline;&quot; aria-level=&quot;1&quot;&gt;&lt;p dir=&quot;ltr&quot; style=&quot;line-height: 120%; margin-top: 0pt; margin-bottom: 0pt;&quot; role=&quot;presentation&quot;&gt;&lt;span style=&quot;color: rgb(0, 0, 0); background-color: transparent; font-weight: 400; font-style: normal; font-variant: normal; text-decoration: none; vertical-align: baseline;&quot;&gt;subject&lt;/span&gt;&lt;/p&gt;&lt;/li&gt;&lt;li dir=&quot;ltr&quot; style=&quot;list-style-type: disc; color: rgb(0, 0, 0); background-color: transparent; font-weight: 400; font-style: normal; font-variant: normal; text-decoration: none; vertical-align: baseline;&quot; aria-level=&quot;1&quot;&gt;&lt;p dir=&quot;ltr&quot; style=&quot;line-height: 120%; margin-top: 0pt; margin-bottom: 0pt;&quot; role=&quot;presentation&quot;&gt;&lt;span style=&quot;color: rgb(0, 0, 0); background-color: transparent; font-weight: 400; font-style: normal; font-variant: normal; text-decoration: none; vertical-align: baseline;&quot;&gt;custodian&lt;/span&gt;&lt;/p&gt;&lt;/li&gt;&lt;li dir=&quot;ltr&quot; style=&quot;list-style-type: disc; color: rgb(0, 0, 0); background-color: transparent; font-weight: 400; font-style: normal; font-variant: normal; text-decoration: none; vertical-align: baseline;&quot; aria-level=&quot;1&quot;&gt;&lt;p dir=&quot;ltr&quot; style=&quot;line-height: 120%; margin-top: 0pt; margin-bottom: 0pt;&quot; role=&quot;presentation&quot;&gt;&lt;span style=&quot;color: rgb(106, 168, 79); background-color: transparent; font-weight: 400; font-style: normal; font-variant: normal; text-decoration: none; vertical-align: baseline;&quot;&gt;version-number&lt;/span&gt;&lt;/p&gt;&lt;/li&gt;&lt;li dir=&quot;ltr&quot; style=&quot;list-style-type: disc; color: rgb(106, 168, 79); background-color: transparent; font-weight: 400; font-style: normal; font-variant: normal; text-decoration: none; vertical-align: baseline;&quot; aria-level=&quot;1&quot;&gt;&lt;p dir=&quot;ltr&quot; style=&quot;line-height: 120%; margin-top: 0pt; margin-bottom: 0pt;&quot; role=&quot;presentation&quot;&gt;&lt;span style=&quot;color: rgb(106, 168, 79); background-color: transparent; font-weight: 400; font-style: normal; font-variant: normal; text-decoration: none; vertical-align: baseline;&quot;&gt;data-enterer&lt;/span&gt;&lt;/p&gt;&lt;/li&gt;&lt;li dir=&quot;ltr&quot; style=&quot;list-style-type: disc; color: rgb(106, 168, 79); background-color: transparent; font-weight: 400; font-style: normal; font-variant: normal; text-decoration: none; vertical-align: baseline;&quot; aria-level=&quot;1&quot;&gt;&lt;p dir=&quot;ltr&quot; style=&quot;line-height: 120%; margin-top: 0pt; margin-bottom: 0pt;&quot; role=&quot;presentation&quot;&gt;&lt;span style=&quot;color: rgb(106, 168, 79); background-color: transparent; font-weight: 400; font-style: normal; font-variant: normal; text-decoration: none; vertical-align: baseline;&quot;&gt;informant&lt;/span&gt;&lt;/p&gt;&lt;/li&gt;&lt;li dir=&quot;ltr&quot; style=&quot;list-style-type: disc; color: rgb(106, 168, 79); background-color: transparent; font-weight: 400; font-style: normal; font-variant: normal; text-decoration: none; vertical-align: baseline;&quot; aria-level=&quot;1&quot;&gt;&lt;p dir=&quot;ltr&quot; style=&quot;line-height: 120%; margin-top: 0pt; margin-bottom: 0pt;&quot; role=&quot;presentation&quot;&gt;&lt;span style=&quot;color: rgb(106, 168, 79); background-color: transparent; font-weight: 400; font-style: normal; font-variant: normal; text-decoration: none; vertical-align: baseline;&quot;&gt;information-recipient&lt;/span&gt;&lt;/p&gt;&lt;/li&gt;&lt;li dir=&quot;ltr&quot; style=&quot;list-style-type: disc; color: rgb(106, 168, 79); background-color: transparent; font-weight: 400; font-style: normal; font-variant: normal; text-decoration: none; vertical-align: baseline;&quot; aria-level=&quot;1&quot;&gt;&lt;p dir=&quot;ltr&quot; style=&quot;line-height: 120%; margin-top: 0pt; margin-bottom: 0pt;&quot; role=&quot;presentation&quot;&gt;&lt;span style=&quot;color: rgb(106, 168, 79); background-color: transparent; font-weight: 400; font-style: normal; font-variant: normal; text-decoration: none; vertical-align: baseline;&quot;&gt;participant&lt;/span&gt;&lt;/p&gt;&lt;/li&gt;&lt;li dir=&quot;ltr&quot; style=&quot;list-style-type: disc; color: rgb(106, 168, 79); background-color: transparent; font-weight: 400; font-style: normal; font-variant: normal; text-decoration: none; vertical-align: baseline;&quot; aria-level=&quot;1&quot;&gt;&lt;p dir=&quot;ltr&quot; style=&quot;line-height: 120%; margin-top: 0pt; margin-bottom: 0pt;&quot; role=&quot;presentation&quot;&gt;&lt;span style=&quot;color: rgb(106, 168, 79); background-color: transparent; font-weight: 400; font-style: normal; font-variant: normal; text-decoration: none; vertical-align: baseline;&quot;&gt;consent&lt;/span&gt;&lt;/p&gt;&lt;/li&gt;&lt;li dir=&quot;ltr&quot; style=&quot;list-style-type: disc; color: rgb(106, 168, 79); background-color: transparent; font-weight: 400; font-style: normal; font-variant: normal; text-decoration: none; vertical-align: baseline;&quot; aria-level=&quot;1&quot;&gt;&lt;p dir=&quot;ltr&quot; style=&quot;line-height: 120%; margin-top: 0pt; margin-bottom: 0pt;&quot; role=&quot;presentation&quot;&gt;&lt;span style=&quot;color: rgb(106, 168, 79); background-color: transparent; font-weight: 400; font-style: normal; font-variant: normal; text-decoration: none; vertical-align: baseline;&quot;&gt;order&lt;/span&gt;&lt;/p&gt;&lt;/li&gt;&lt;li dir=&quot;ltr&quot; style=&quot;list-style-type: disc; color: rgb(0, 0, 0); background-color: transparent; font-weight: 400; font-style: normal; font-variant: normal; text-decoration: none; vertical-align: baseline;&quot; aria-level=&quot;1&quot;&gt;&lt;p dir=&quot;ltr&quot; style=&quot;line-height: 120%; margin-top: 0pt; margin-bottom: 0pt;&quot; role=&quot;presentation&quot;&gt;&lt;span style=&quot;color: rgb(0, 0, 0); background-color: transparent; font-weight: 400; font-style: normal; font-variant: normal; text-decoration: none; vertical-align: baseline;&quot;&gt;section&lt;/span&gt;&lt;/p&gt;&lt;/li&gt;&lt;ul style=&quot;margin-top: 0px; margin-bottom: 0px; padding-inline-start: 48px; line-height: 120%;&quot;&gt;&lt;li dir=&quot;ltr&quot; style=&quot;list-style-type: circle; color: rgb(0, 0, 0); background-color: transparent; font-weight: 400; font-style: normal; font-variant: normal; text-decoration: none; vertical-align: baseline;&quot; aria-level=&quot;2&quot;&gt;&lt;p dir=&quot;ltr&quot; style=&quot;line-height: 120%; margin-top: 0pt; margin-bottom: 0pt;&quot; role=&quot;presentation&quot;&gt;&lt;span style=&quot;color: rgb(0, 0, 0); background-color: transparent; font-weight: 400; font-style: normal; font-variant: normal; text-decoration: none; vertical-align: baseline;&quot;&gt;section.title&lt;/span&gt;&lt;/p&gt;&lt;/li&gt;&lt;li dir=&quot;ltr&quot; style=&quot;list-style-type: circle; color: rgb(0, 0, 0); background-color: transparent; font-weight: 400; font-style: normal; font-variant: normal; text-decoration: none; vertical-align: baseline;&quot; aria-level=&quot;2&quot;&gt;&lt;p dir=&quot;ltr&quot; style=&quot;line-height: 120%; margin-top: 0pt; margin-bottom: 0pt;&quot; role=&quot;presentation&quot;&gt;&lt;span style=&quot;color: rgb(0, 0, 0); background-color: transparent; font-weight: 400; font-style: normal; font-variant: normal; text-decoration: none; vertical-align: baseline;&quot;&gt;section.code&lt;/span&gt;&lt;/p&gt;&lt;/li&gt;&lt;li dir=&quot;ltr&quot; style=&quot;list-style-type: circle; color: rgb(0, 0, 0); background-color: transparent; font-weight: 400; font-style: normal; font-variant: normal; text-decoration: none; vertical-align: baseline;&quot; aria-level=&quot;2&quot;&gt;&lt;p dir=&quot;ltr&quot; style=&quot;line-height: 120%; margin-top: 0pt; margin-bottom: 0pt;&quot; role=&quot;presentation&quot;&gt;&lt;span style=&quot;color: rgb(0, 0, 0); background-color: transparent; font-weight: 400; font-style: normal; font-variant: normal; text-decoration: none; vertical-align: baseline;&quot;&gt;Section.text&lt;/span&gt;&lt;/p&gt;&lt;/li&gt;&lt;/ul&gt;&lt;/ul&gt;&lt;/font&gt;&lt;font style=&quot;font-size: 14px;&quot; face=&quot;Helvetica&quot;&gt;&lt;/font&gt;&lt;/b&gt;" style="text;whiteSpace=wrap;html=1;" vertex="1" parent="1">
          <mxGeometry x="790" y="270" width="310" height="670" as="geometry" />
        </mxCell>
        <mxCell id="bgnvrLKmnZTO1jpBGcNv-10" value="" style="rounded=0;whiteSpace=wrap;html=1;fillColor=none;strokeWidth=4;fontColor=#ffffff;strokeColor=#001DBC;" vertex="1" parent="1">
          <mxGeometry x="760" y="267" width="360" height="673" as="geometry" />
        </mxCell>
        <mxCell id="bgnvrLKmnZTO1jpBGcNv-11" value="" style="rounded=0;whiteSpace=wrap;html=1;fillColor=none;strokeWidth=4;fontColor=#ffffff;strokeColor=#B20000;" vertex="1" parent="1">
          <mxGeometry x="770" y="370" width="340" height="560" as="geometry" />
        </mxCell>
      </root>
    </mxGraphModel>
  </diagram>
  <diagram id="mqQ14eVLoyBSqMpOsqbU" name="sucessionMangement">
    <mxGraphModel grid="1" page="1" gridSize="10" guides="1" tooltips="1" connect="1" arrows="1" fold="1" pageScale="1" pageWidth="1700" pageHeight="1100" background="#ffffff" math="0" shadow="0">
      <root>
        <mxCell id="0" />
        <mxCell id="1" parent="0" />
        <mxCell id="Xvo_frkD2s2EMJg8dXH5-15" value="" style="rounded=0;whiteSpace=wrap;html=1;fillColor=none;strokeWidth=4;fontColor=#ffffff;strokeColor=#001DBC;" vertex="1" parent="1">
          <mxGeometry x="740" y="154" width="380" height="260" as="geometry" />
        </mxCell>
        <mxCell id="Xvo_frkD2s2EMJg8dXH5-16" value="" style="rounded=0;whiteSpace=wrap;html=1;fillColor=none;strokeWidth=4;fontColor=#ffffff;strokeColor=#B20000;" vertex="1" parent="1">
          <mxGeometry x="750" y="257" width="360" height="147" as="geometry" />
        </mxCell>
        <mxCell id="Xvo_frkD2s2EMJg8dXH5-17" value="&lt;div&gt;&lt;b style=&quot;background-color: initial; font-size: 14px;&quot;&gt;&lt;u&gt;Bundle&lt;/u&gt;&lt;/b&gt;&lt;br&gt;&lt;/div&gt;&lt;div style=&quot;font-size: 14px;&quot;&gt;&lt;ul&gt;&lt;li&gt;&lt;font style=&quot;font-size: 14px;&quot;&gt;identifier = 12345v2&lt;/font&gt;&lt;/li&gt;&lt;li&gt;&lt;font style=&quot;font-size: 14px;&quot;&gt;type = document&lt;/font&gt;&lt;/li&gt;&lt;li&gt;&lt;font style=&quot;font-size: 14px;&quot;&gt;timestamp =&amp;nbsp;&lt;/font&gt;2024-05-08T12:28:34.254+00:00&lt;/li&gt;&lt;/ul&gt;&lt;/div&gt;&lt;div style=&quot;font-size: 14px;&quot;&gt;&lt;font style=&quot;font-size: 14px;&quot;&gt;&lt;br&gt;&lt;/font&gt;&lt;/div&gt;&lt;div style=&quot;font-size: 14px;&quot;&gt;&lt;font style=&quot;font-size: 14px;&quot;&gt;&lt;b&gt;&lt;u&gt;Composition&lt;/u&gt;&lt;/b&gt;&lt;/font&gt;&lt;/div&gt;&lt;div style=&quot;font-size: 14px;&quot;&gt;&lt;ul style=&quot;&quot;&gt;&lt;li style=&quot;&quot;&gt;&lt;font style=&quot;font-size: 14px;&quot;&gt;identifier = bcdef&lt;/font&gt;&lt;/li&gt;&lt;li style=&quot;&quot;&gt;&lt;font style=&quot;font-size: 14px;&quot;&gt;version (extension) = 1&lt;/font&gt;&lt;/li&gt;&lt;li style=&quot;&quot;&gt;&lt;font style=&quot;font-size: 14px;&quot;&gt;date = 2024-05-08&lt;/font&gt;&lt;/li&gt;&lt;li style=&quot;&quot;&gt;&lt;font style=&quot;font-size: 14px;&quot;&gt;relatesTo (replaces) = Bundle?identifier=12345v1&lt;/font&gt;&lt;/li&gt;&lt;li style=&quot;&quot;&gt;&lt;font style=&quot;font-size: 14px;&quot;&gt;status = entered-in-error&lt;/font&gt;&lt;/li&gt;&lt;/ul&gt;&lt;/div&gt;" style="text;html=1;align=left;verticalAlign=middle;resizable=0;points=[];autosize=1;strokeColor=none;fillColor=none;" vertex="1" parent="1">
          <mxGeometry x="760" y="161" width="370" height="250" as="geometry" />
        </mxCell>
        <mxCell id="Xvo_frkD2s2EMJg8dXH5-18" value="&lt;font style=&quot;font-size: 18px;&quot;&gt;Entered-in-error (Empty document)&lt;/font&gt;" style="text;html=1;align=center;verticalAlign=middle;whiteSpace=wrap;rounded=0;" vertex="1" parent="1">
          <mxGeometry x="757" y="123" width="293" height="30" as="geometry" />
        </mxCell>
        <mxCell id="Xvo_frkD2s2EMJg8dXH5-19" value="" style="rounded=0;whiteSpace=wrap;html=1;fillColor=none;strokeWidth=4;fontColor=#ffffff;strokeColor=#001DBC;" vertex="1" parent="1">
          <mxGeometry x="740" y="491" width="380" height="260" as="geometry" />
        </mxCell>
        <mxCell id="Xvo_frkD2s2EMJg8dXH5-20" value="" style="rounded=0;whiteSpace=wrap;html=1;fillColor=none;strokeWidth=4;fontColor=#ffffff;strokeColor=#B20000;" vertex="1" parent="1">
          <mxGeometry x="750" y="594" width="360" height="147" as="geometry" />
        </mxCell>
        <mxCell id="Xvo_frkD2s2EMJg8dXH5-21" value="&lt;div&gt;&lt;b style=&quot;background-color: initial; font-size: 14px;&quot;&gt;&lt;u&gt;Bundle&lt;/u&gt;&lt;/b&gt;&lt;br&gt;&lt;/div&gt;&lt;div style=&quot;font-size: 14px;&quot;&gt;&lt;ul&gt;&lt;li&gt;&lt;font style=&quot;font-size: 14px;&quot;&gt;identifier = 54231v1&lt;/font&gt;&lt;/li&gt;&lt;li&gt;&lt;font style=&quot;font-size: 14px;&quot;&gt;type = document&lt;/font&gt;&lt;/li&gt;&lt;li&gt;&lt;font style=&quot;font-size: 14px;&quot;&gt;timestamp =&amp;nbsp;&lt;/font&gt;2024-05-08T12:28:34.254+00:00&lt;/li&gt;&lt;/ul&gt;&lt;/div&gt;&lt;div style=&quot;font-size: 14px;&quot;&gt;&lt;font style=&quot;font-size: 14px;&quot;&gt;&lt;br&gt;&lt;/font&gt;&lt;/div&gt;&lt;div style=&quot;font-size: 14px;&quot;&gt;&lt;font style=&quot;font-size: 14px;&quot;&gt;&lt;b&gt;&lt;u&gt;Composition&lt;/u&gt;&lt;/b&gt;&lt;/font&gt;&lt;/div&gt;&lt;div style=&quot;font-size: 14px;&quot;&gt;&lt;ul style=&quot;&quot;&gt;&lt;li style=&quot;&quot;&gt;&lt;font style=&quot;font-size: 14px;&quot;&gt;identifier = bcdef&lt;/font&gt;&lt;/li&gt;&lt;li style=&quot;&quot;&gt;&lt;font style=&quot;font-size: 14px;&quot;&gt;version (extension) = 1&lt;/font&gt;&lt;/li&gt;&lt;li style=&quot;&quot;&gt;&lt;font style=&quot;font-size: 14px;&quot;&gt;date = 2024-05-08&lt;/font&gt;&lt;/li&gt;&lt;li style=&quot;&quot;&gt;&lt;font style=&quot;font-size: 14px;&quot;&gt;relatesTo (replaces) = Bundle?identifier=12345v1&lt;/font&gt;&lt;/li&gt;&lt;li style=&quot;&quot;&gt;&lt;font style=&quot;font-size: 14px;&quot;&gt;status = final&lt;/font&gt;&lt;/li&gt;&lt;/ul&gt;&lt;/div&gt;" style="text;html=1;align=left;verticalAlign=middle;resizable=0;points=[];autosize=1;strokeColor=none;fillColor=none;" vertex="1" parent="1">
          <mxGeometry x="760" y="498" width="370" height="250" as="geometry" />
        </mxCell>
        <mxCell id="Xvo_frkD2s2EMJg8dXH5-22" value="&lt;font style=&quot;font-size: 18px;&quot;&gt;Addendum document&lt;/font&gt;" style="text;html=1;align=center;verticalAlign=middle;whiteSpace=wrap;rounded=0;" vertex="1" parent="1">
          <mxGeometry x="757" y="460" width="183" height="30" as="geometry" />
        </mxCell>
        <mxCell id="Xvo_frkD2s2EMJg8dXH5-25" value="&lt;font style=&quot;font-size: 18px;&quot;&gt;&lt;i&gt;&#39;Addendum&#39; and &#39;Entered-in-error are experimental workflows&lt;br&gt;&lt;div style=&quot;text-align: left;&quot;&gt;&lt;span style=&quot;background-color: initial;&quot;&gt;Shown-only for completion of CDA use cases&lt;/span&gt;&lt;/div&gt;&lt;/i&gt;&lt;/font&gt;" style="text;html=1;align=center;verticalAlign=middle;whiteSpace=wrap;rounded=0;" vertex="1" parent="1">
          <mxGeometry x="517" y="63" width="500" height="60" as="geometry" />
        </mxCell>
        <mxCell id="Xvo_frkD2s2EMJg8dXH5-34" value="" style="group" connectable="0" vertex="1" parent="1">
          <mxGeometry x="88" y="37" width="390" height="291" as="geometry" />
        </mxCell>
        <mxCell id="Xvo_frkD2s2EMJg8dXH5-11" value="" style="rounded=0;whiteSpace=wrap;html=1;fillColor=none;strokeWidth=4;fontColor=#ffffff;strokeColor=#001DBC;" vertex="1" parent="Xvo_frkD2s2EMJg8dXH5-34">
          <mxGeometry y="31" width="380" height="260" as="geometry" />
        </mxCell>
        <mxCell id="Xvo_frkD2s2EMJg8dXH5-12" value="" style="rounded=0;whiteSpace=wrap;html=1;fillColor=none;strokeWidth=4;fontColor=#ffffff;strokeColor=#B20000;" vertex="1" parent="Xvo_frkD2s2EMJg8dXH5-34">
          <mxGeometry x="10" y="134" width="360" height="147" as="geometry" />
        </mxCell>
        <mxCell id="Xvo_frkD2s2EMJg8dXH5-13" value="&lt;div&gt;&lt;b style=&quot;background-color: initial; font-size: 14px;&quot;&gt;&lt;u&gt;Bundle&lt;/u&gt;&lt;/b&gt;&lt;br&gt;&lt;/div&gt;&lt;div style=&quot;font-size: 14px;&quot;&gt;&lt;ul&gt;&lt;li&gt;&lt;font style=&quot;font-size: 14px;&quot;&gt;identifier = 12345v1&lt;/font&gt;&lt;/li&gt;&lt;li&gt;&lt;font style=&quot;font-size: 14px;&quot;&gt;type = document&lt;/font&gt;&lt;/li&gt;&lt;li&gt;&lt;font style=&quot;font-size: 14px;&quot;&gt;timestamp =&amp;nbsp;&lt;/font&gt;2024-05-07T13:28:17.239+00:00&lt;/li&gt;&lt;/ul&gt;&lt;/div&gt;&lt;div style=&quot;font-size: 14px;&quot;&gt;&lt;font style=&quot;font-size: 14px;&quot;&gt;&lt;br&gt;&lt;/font&gt;&lt;/div&gt;&lt;div style=&quot;font-size: 14px;&quot;&gt;&lt;font style=&quot;font-size: 14px;&quot;&gt;&lt;b&gt;&lt;u&gt;Composition&lt;/u&gt;&lt;/b&gt;&lt;/font&gt;&lt;/div&gt;&lt;div style=&quot;font-size: 14px;&quot;&gt;&lt;ul style=&quot;&quot;&gt;&lt;li style=&quot;&quot;&gt;&lt;font style=&quot;font-size: 14px;&quot;&gt;identifier = bcdef&lt;/font&gt;&lt;/li&gt;&lt;li style=&quot;&quot;&gt;&lt;font style=&quot;font-size: 14px;&quot;&gt;version (extension) = 1&lt;/font&gt;&lt;/li&gt;&lt;li style=&quot;&quot;&gt;&lt;font style=&quot;font-size: 14px;&quot;&gt;date = 2024-05-07&lt;/font&gt;&lt;/li&gt;&lt;li style=&quot;&quot;&gt;&lt;font style=&quot;font-size: 14px;&quot;&gt;relatesTo (replaces) = Bundle?identifier=12345v1&lt;/font&gt;&lt;/li&gt;&lt;li style=&quot;&quot;&gt;&lt;font style=&quot;font-size: 14px;&quot;&gt;status = final&lt;/font&gt;&lt;/li&gt;&lt;/ul&gt;&lt;/div&gt;" style="text;html=1;align=left;verticalAlign=middle;resizable=0;points=[];autosize=1;strokeColor=none;fillColor=none;" vertex="1" parent="Xvo_frkD2s2EMJg8dXH5-34">
          <mxGeometry x="20" y="38" width="370" height="250" as="geometry" />
        </mxCell>
        <mxCell id="Xvo_frkD2s2EMJg8dXH5-14" value="&lt;font style=&quot;font-size: 18px;&quot;&gt;Original document&lt;/font&gt;" style="text;html=1;align=center;verticalAlign=middle;whiteSpace=wrap;rounded=0;" vertex="1" parent="Xvo_frkD2s2EMJg8dXH5-34">
          <mxGeometry x="17" width="155" height="30" as="geometry" />
        </mxCell>
        <mxCell id="Xvo_frkD2s2EMJg8dXH5-35" value="" style="group" connectable="0" vertex="1" parent="1">
          <mxGeometry x="88" y="459" width="390" height="291" as="geometry" />
        </mxCell>
        <mxCell id="Xvo_frkD2s2EMJg8dXH5-8" value="" style="rounded=0;whiteSpace=wrap;html=1;fillColor=none;strokeWidth=4;fontColor=#ffffff;strokeColor=#001DBC;" vertex="1" parent="Xvo_frkD2s2EMJg8dXH5-35">
          <mxGeometry y="31" width="380" height="260" as="geometry" />
        </mxCell>
        <mxCell id="Xvo_frkD2s2EMJg8dXH5-9" value="" style="rounded=0;whiteSpace=wrap;html=1;fillColor=none;strokeWidth=4;fontColor=#ffffff;strokeColor=#B20000;" vertex="1" parent="Xvo_frkD2s2EMJg8dXH5-35">
          <mxGeometry x="10" y="134" width="360" height="147" as="geometry" />
        </mxCell>
        <mxCell id="Xvo_frkD2s2EMJg8dXH5-7" value="&lt;div&gt;&lt;b style=&quot;background-color: initial; font-size: 14px;&quot;&gt;&lt;u&gt;Bundle&lt;/u&gt;&lt;/b&gt;&lt;br&gt;&lt;/div&gt;&lt;div style=&quot;font-size: 14px;&quot;&gt;&lt;ul&gt;&lt;li&gt;&lt;font style=&quot;font-size: 14px;&quot;&gt;identifier = 12345v2&lt;/font&gt;&lt;/li&gt;&lt;li&gt;&lt;font style=&quot;font-size: 14px;&quot;&gt;type = document&lt;/font&gt;&lt;/li&gt;&lt;li&gt;&lt;font style=&quot;font-size: 14px;&quot;&gt;timestamp =&amp;nbsp;&lt;/font&gt;2024-05-08T12:28:34.254+00:00&lt;/li&gt;&lt;/ul&gt;&lt;/div&gt;&lt;div style=&quot;font-size: 14px;&quot;&gt;&lt;font style=&quot;font-size: 14px;&quot;&gt;&lt;br&gt;&lt;/font&gt;&lt;/div&gt;&lt;div style=&quot;font-size: 14px;&quot;&gt;&lt;font style=&quot;font-size: 14px;&quot;&gt;&lt;b&gt;&lt;u&gt;Composition&lt;/u&gt;&lt;/b&gt;&lt;/font&gt;&lt;/div&gt;&lt;div style=&quot;font-size: 14px;&quot;&gt;&lt;ul style=&quot;&quot;&gt;&lt;li style=&quot;&quot;&gt;&lt;font style=&quot;font-size: 14px;&quot;&gt;identifier = bcdef&lt;/font&gt;&lt;/li&gt;&lt;li style=&quot;&quot;&gt;&lt;font style=&quot;font-size: 14px;&quot;&gt;version (extension) = 1&lt;/font&gt;&lt;/li&gt;&lt;li style=&quot;&quot;&gt;&lt;font style=&quot;font-size: 14px;&quot;&gt;date = 2024-05-08&lt;/font&gt;&lt;/li&gt;&lt;li style=&quot;&quot;&gt;&lt;font style=&quot;font-size: 14px;&quot;&gt;relatesTo (replaces) = Bundle?identifier=12345v1&lt;/font&gt;&lt;/li&gt;&lt;li style=&quot;&quot;&gt;&lt;font style=&quot;font-size: 14px;&quot;&gt;status = amended&lt;/font&gt;&lt;/li&gt;&lt;/ul&gt;&lt;/div&gt;" style="text;html=1;align=left;verticalAlign=middle;resizable=0;points=[];autosize=1;strokeColor=none;fillColor=none;" vertex="1" parent="Xvo_frkD2s2EMJg8dXH5-35">
          <mxGeometry x="20" y="38" width="370" height="250" as="geometry" />
        </mxCell>
        <mxCell id="Xvo_frkD2s2EMJg8dXH5-10" value="&lt;font style=&quot;font-size: 18px;&quot;&gt;Replacement document&lt;/font&gt;" style="text;html=1;align=center;verticalAlign=middle;whiteSpace=wrap;rounded=0;" vertex="1" parent="Xvo_frkD2s2EMJg8dXH5-35">
          <mxGeometry x="17" width="193" height="30" as="geometry" />
        </mxCell>
        <mxCell id="Xvo_frkD2s2EMJg8dXH5-36" value="" style="group" connectable="0" vertex="1" parent="1">
          <mxGeometry x="149" y="330" width="240" height="120" as="geometry" />
        </mxCell>
        <mxCell id="Xvo_frkD2s2EMJg8dXH5-33" value="" style="endArrow=classic;html=1;rounded=0;strokeWidth=4;" edge="1" parent="Xvo_frkD2s2EMJg8dXH5-36">
          <mxGeometry width="50" height="50" relative="1" as="geometry">
            <mxPoint x="123" as="sourcePoint" />
            <mxPoint x="123" y="120" as="targetPoint" />
          </mxGeometry>
        </mxCell>
        <mxCell id="Xvo_frkD2s2EMJg8dXH5-26" value="&lt;div&gt;Correction in document.&lt;/div&gt;&lt;div&gt;New clinical document replaces the old.&lt;/div&gt;" style="text;html=1;align=left;verticalAlign=middle;resizable=0;points=[];autosize=1;strokeColor=default;fillColor=default;strokeWidth=4;spacingTop=0;spacingLeft=8;" vertex="1" parent="Xvo_frkD2s2EMJg8dXH5-36">
          <mxGeometry y="41" width="240" height="40" as="geometry" />
        </mxCell>
        <mxCell id="Xvo_frkD2s2EMJg8dXH5-38" value="" style="endArrow=classic;html=1;rounded=0;strokeWidth=2;dashed=1;dashPattern=1 1;exitX=0.978;exitY=0.94;exitDx=0;exitDy=0;exitPerimeter=0;" edge="1" parent="1" source="Xvo_frkD2s2EMJg8dXH5-13">
          <mxGeometry width="50" height="50" relative="1" as="geometry">
            <mxPoint x="500" y="310" as="sourcePoint" />
            <mxPoint x="730" y="630" as="targetPoint" />
            <Array as="points">
              <mxPoint x="490" y="310" />
              <mxPoint x="490" y="340" />
              <mxPoint x="490" y="410" />
              <mxPoint x="490" y="450" />
              <mxPoint x="490" y="540" />
              <mxPoint x="570" y="540" />
              <mxPoint x="620" y="540" />
              <mxPoint x="620" y="580" />
              <mxPoint x="620" y="630" />
              <mxPoint x="660" y="630" />
              <mxPoint x="690" y="630" />
            </Array>
          </mxGeometry>
        </mxCell>
        <mxCell id="Xvo_frkD2s2EMJg8dXH5-39" value="Past clinical document &lt;i&gt;addended &lt;/i&gt;&lt;br&gt;with new document." style="text;html=1;align=left;verticalAlign=middle;resizable=0;points=[];autosize=1;strokeColor=default;fillColor=default;strokeWidth=2;spacingTop=0;spacingLeft=8;rotation=0;" vertex="1" parent="1">
          <mxGeometry x="517" y="526" width="210" height="40" as="geometry" />
        </mxCell>
        <mxCell id="Xvo_frkD2s2EMJg8dXH5-44" value="" style="endArrow=classic;html=1;rounded=0;strokeWidth=2;dashed=1;dashPattern=1 1;exitX=0.978;exitY=0.5;exitDx=0;exitDy=0;exitPerimeter=0;" edge="1" parent="1" source="Xvo_frkD2s2EMJg8dXH5-13">
          <mxGeometry width="50" height="50" relative="1" as="geometry">
            <mxPoint x="500" y="200" as="sourcePoint" />
            <mxPoint x="730" y="300" as="targetPoint" />
            <Array as="points">
              <mxPoint x="610" y="200" />
              <mxPoint x="610" y="300" />
            </Array>
          </mxGeometry>
        </mxCell>
        <mxCell id="Xvo_frkD2s2EMJg8dXH5-45" value="Past clinical document issued in&lt;br&gt;error (e.g. wrong patient) and is &lt;br&gt;&lt;i&gt;replaced&lt;/i&gt; with an empty document." style="text;html=1;align=left;verticalAlign=middle;resizable=0;points=[];autosize=1;strokeColor=default;fillColor=default;strokeWidth=2;spacingTop=0;spacingLeft=8;rotation=0;" vertex="1" parent="1">
          <mxGeometry x="517" y="221" width="210" height="50" as="geometry" />
        </mxCell>
        <mxCell id="Xvo_frkD2s2EMJg8dXH5-46" value="" style="rounded=0;whiteSpace=wrap;html=1;fillColor=#CCCCCC;opacity=20;strokeWidth=4;strokeColor=#000000;perimeterSpacing=4;" vertex="1" parent="1">
          <mxGeometry x="510" y="63" width="650" height="697" as="geometry" />
        </mxCell>
      </root>
    </mxGraphModel>
  </diagram>
</mxfile>
